<?xml version="1.0" standalone="no"?>
<!DOCTYPE svg PUBLIC "-//W3C//DTD SVG 20010904//EN"
 "http://www.w3.org/TR/2001/REC-SVG-20010904/DTD/svg10.dtd">
<svg version="1.0" xmlns="http://www.w3.org/2000/svg"
 width="158.000000pt" height="53.000000pt" viewBox="0 0 158.000000 53.000000"
 preserveAspectRatio="xMidYMid meet">

<g transform="translate(0.000000,53.000000) scale(0.100000,-0.100000)"
fill="#000000" stroke="none">
<path d="M252 473 c-10 -16 -47 -82 -82 -148 -34 -66 -76 -144 -93 -174 -28
-52 -29 -55 -11 -68 17 -12 21 -11 34 8 23 33 220 393 220 401 0 21 -50 6 -68
-19z"/>
<path d="M340 489 c0 -16 220 -419 229 -419 4 0 15 6 25 13 16 12 9 28 -91
212 -97 176 -113 200 -136 203 -16 2 -27 -2 -27 -9z"/>
<path d="M970 285 l0 -155 25 0 c14 0 25 4 25 9 0 6 16 3 36 -5 75 -31 144 21
144 108 0 43 -4 54 -31 79 -33 31 -91 39 -130 19 -18 -10 -19 -7 -19 45 0 52
-1 55 -25 55 l-25 0 0 -155z m166 -10 c20 -31 12 -69 -21 -91 -53 -34 -117 36
-81 90 23 36 79 37 102 1z"/>
<path d="M1230 286 l0 -156 30 0 31 0 -3 153 -3 152 -27 3 -28 3 0 -155z"/>
<path d="M737 329 c-15 -11 -32 -37 -38 -59 -16 -52 10 -107 64 -134 36 -17
41 -17 78 -3 21 8 39 11 39 6 0 -5 11 -9 25 -9 l25 0 0 110 c0 110 0 110 -24
110 -13 0 -26 -6 -29 -12 -4 -10 -7 -10 -18 0 -21 20 -93 15 -122 -9z m117
-42 c13 -9 17 -23 14 -52 -2 -32 -8 -42 -32 -54 -25 -12 -31 -11 -55 6 -32 24
-39 68 -15 94 20 22 62 25 88 6z"/>
<path d="M1310 345 c0 -2 18 -52 41 -110 36 -92 39 -110 30 -137 -16 -45 -14
-50 16 -46 25 3 31 14 71 113 24 61 50 127 57 148 l15 38 -32 -3 c-28 -3 -33
-8 -58 -77 -15 -41 -29 -70 -32 -65 -3 5 -15 39 -27 77 -21 62 -25 67 -52 67
-16 0 -29 -2 -29 -5z"/>
<path d="M230 164 c-95 -78 -112 -100 -90 -114 9 -5 44 14 102 57 l88 65 91
-73 c85 -67 92 -71 114 -59 20 11 22 16 13 27 -14 17 -214 173 -221 173 -3 0
-46 -34 -97 -76z"/>
</g>
</svg>
